<?xml version="1.0" encoding="UTF-8" standalone="no"?><!-- Generator: Gravit.io --><svg xmlns="http://www.w3.org/2000/svg" xmlns:xlink="http://www.w3.org/1999/xlink" style="isolation:isolate" viewBox="0 0 400 400" width="400pt" height="400pt"><defs><clipPath id="_clipPath_mJ11Sdo5qgeIsLJb2nLlNaAik58Xmx53"><rect width="400" height="400"/></clipPath></defs><g clip-path="url(#_clipPath_mJ11Sdo5qgeIsLJb2nLlNaAik58Xmx53)"><path d=" M 147.07 271.387 L 147.07 128.613 L 191.503 128.613 L 191.503 128.613 Q 221.874 128.613 235.596 137.256 L 235.596 137.256 L 235.596 137.256 Q 249.316 145.899 249.316 164.746 L 249.316 164.746 L 249.316 164.746 Q 249.316 177.539 243.311 185.742 L 243.311 185.742 L 243.311 185.742 Q 237.305 193.945 227.344 195.606 L 227.344 195.606 L 227.344 196.582 L 227.344 196.582 Q 240.917 199.61 246.924 207.91 L 246.924 207.91 L 246.924 207.91 Q 252.93 216.211 252.93 229.981 L 252.93 229.981 L 252.93 229.981 Q 252.93 249.512 238.818 260.449 L 238.818 260.449 L 238.818 260.449 Q 224.706 271.387 200.488 271.387 L 200.488 271.387 L 147.07 271.387 L 147.07 271.387 L 147.07 271.387 Z  M 177.344 153.418 L 177.344 185.156 L 194.922 185.156 L 194.922 185.156 Q 207.227 185.156 212.745 181.348 L 212.745 181.348 L 212.745 181.348 Q 218.262 177.539 218.262 168.75 L 218.262 168.75 L 218.262 168.75 Q 218.262 160.547 212.256 156.983 L 212.256 156.983 L 212.256 156.983 Q 206.249 153.418 193.262 153.418 L 193.262 153.418 L 177.344 153.418 L 177.344 153.418 L 177.344 153.418 Z  M 196.094 209.18 L 177.344 209.18 L 177.344 246.387 L 197.07 246.387 L 197.07 246.387 Q 209.57 246.387 215.527 241.602 L 215.527 241.602 L 215.527 241.602 Q 221.484 236.817 221.484 226.953 L 221.484 226.953 L 221.484 226.953 Q 221.484 209.18 196.094 209.18 L 196.094 209.18 L 196.094 209.18 L 196.094 209.18 Z " fill="rgb(255,255,255)" fill-opacity="0.5"/></g></svg>